<?xml version="1.0" encoding="iso-8859-1"?>
<!-- Uploaded to: SVG Repo, www.svgrepo.com, Generator: SVG Repo Mixer Tools -->
<svg height="800px" width="800px" version="1.1" id="Layer_1" xmlns="http://www.w3.org/2000/svg" xmlns:xlink="http://www.w3.org/1999/xlink" 
	 viewBox="0 0 392.632 392.632" xml:space="preserve">
<g>
	<path style="fill:#FFFFFF;" d="M321.327,238.239H26.087c1.552,5.43,2.78,10.796,3.814,16.291h262.982
		c6.012,0,10.925,4.848,10.925,10.925c0,6.012-4.848,10.925-10.925,10.925H32.616c0.453,7.499,0.453,14.998,0,22.562h212.428
		c6.012,0,10.925,4.848,10.925,10.925c0,6.012-4.848,10.925-10.925,10.925H29.836c-1.034,5.495-2.263,10.99-3.814,16.291h295.24
		c27.281,0,49.39-22.174,49.39-49.39C370.782,260.348,348.608,238.239,321.327,238.239z"/>
	<path style="fill:#FFFFFF;" d="M21.82,104.938c0,27.281,22.174,49.39,49.39,49.39h295.24c-1.552-5.43-2.78-10.796-3.814-16.291
		H98.426c-6.012,0-10.925-4.848-10.925-10.925s4.848-10.925,10.925-10.925h261.43c-0.453-7.499-0.453-14.998,0-22.562H147.558
		c-6.012,0-10.925-4.848-10.925-10.925c0-6.012,4.848-10.925,10.925-10.925h215.208c1.034-5.495,2.263-10.99,3.814-16.291H71.275
		C43.994,55.548,21.82,77.722,21.82,104.938z"/>
</g>
<path style="fill:#FFC10D;" d="M52.98,315.233c2.521-18.295,2.521-36.848,0-55.143h268.477c15.192,0,27.604,12.347,27.604,27.604
	s-12.412,27.539-27.669,27.539H52.98L52.98,315.233z"/>
<path style="fill:#56ACE0;" d="M71.275,132.542c-15.192,0-27.604-12.347-27.604-27.604s12.412-27.604,27.604-27.604h268.477
	c-2.521,18.295-2.521,36.848,0,55.143H71.275V132.542z"/>
<g>
	<path style="fill:#194F82;" d="M0.745,344.001c-2.651,6.335,2.004,14.869,10.214,14.869h310.432c39.24,0,71.24-31.935,71.24-71.24
		c0-39.24-31.935-71.24-71.24-71.24H10.895c-7.564,0-12.735,7.37-10.214,14.869C14.709,267.589,14.709,307.605,0.745,344.001z
		 M303.679,265.456c0-6.012-4.848-10.925-10.925-10.925H29.836c-1.034-5.495-2.263-10.99-3.814-16.291h295.24
		c27.281,0,49.39,22.174,49.39,49.39c0,27.281-22.174,49.39-49.39,49.39H26.087c1.552-5.43,2.78-10.796,3.814-16.291h215.208
		c6.012,0,10.925-4.848,10.925-10.925c0-6.012-4.848-10.925-10.925-10.925H32.616c0.453-7.499,0.453-14.998,0-22.562h260.073
		C298.83,276.316,303.679,271.468,303.679,265.456z"/>
	<path style="fill:#194F82;" d="M391.856,48.567c2.651-7.434-2.65-14.804-10.214-14.804H71.275c-39.305,0-71.24,31.935-71.24,71.176
		s31.935,71.24,71.24,71.24h310.432c8.21,0,12.735-8.404,10.214-14.804C377.893,124.979,377.893,84.963,391.856,48.567z
		 M147.558,93.69h212.428c-0.453,7.499-0.453,14.998,0,22.562H98.491c-6.012,0-10.925,4.848-10.925,10.925
		s4.848,10.925,10.925,10.925h264.275c1.034,5.495,2.263,10.99,3.814,16.291H71.275c-27.281,0-49.39-22.174-49.39-49.39
		c0-27.281,22.174-49.39,49.39-49.39h295.24c-1.552,5.43-2.78,10.796-3.814,16.291H147.558c-6.012,0-10.925,4.848-10.925,10.925
		C136.632,88.777,141.545,93.69,147.558,93.69z"/>
</g>
</svg>